<svg xmlns="http://www.w3.org/2000/svg" width="60" height="60" viewBox="0 0 60 60" fill="none">
<path d="M42.3999 15.425C47.3999 18.9 50.8499 24.425 51.5499 30.8" stroke="#0A1540" stroke-width="1.5" stroke-linecap="round" stroke-linejoin="round"/>
<path d="M8.7251 30.925C9.3751 24.575 12.7751 19.05 17.7251 15.55" stroke="#0A1540" stroke-width="1.5" stroke-linecap="round" stroke-linejoin="round"/>
<path d="M20.4751 52.3501C23.3751 53.8251 26.6751 54.6501 30.1501 54.6501C33.5001 54.6501 36.6501 53.9001 39.4751 52.5251" stroke="#0A1540" stroke-width="1.5" stroke-linecap="round" stroke-linejoin="round"/>
<path d="M30.15 19.2501C33.9883 19.2501 37.1 16.1385 37.1 12.3001C37.1 8.46172 33.9883 5.3501 30.15 5.3501C26.3116 5.3501 23.2 8.46172 23.2 12.3001C23.2 16.1385 26.3116 19.2501 30.15 19.2501Z" stroke="#0A1540" stroke-width="1.5" stroke-linecap="round" stroke-linejoin="round"/>
<path d="M12.075 49.7999C15.9134 49.7999 19.025 46.6883 19.025 42.8499C19.025 39.0115 15.9134 35.8999 12.075 35.8999C8.23662 35.8999 5.125 39.0115 5.125 42.8499C5.125 46.6883 8.23662 49.7999 12.075 49.7999Z" stroke="#0A1540" stroke-width="1.5" stroke-linecap="round" stroke-linejoin="round"/>
<path d="M47.9251 49.7999C51.7635 49.7999 54.8751 46.6883 54.8751 42.8499C54.8751 39.0115 51.7635 35.8999 47.9251 35.8999C44.0867 35.8999 40.9751 39.0115 40.9751 42.8499C40.9751 46.6883 44.0867 49.7999 47.9251 49.7999Z" stroke="#0A1540" stroke-width="1.5" stroke-linecap="round" stroke-linejoin="round"/>
</svg>